<svg width="31" height="31" viewBox="0 0 31 31" fill="none" xmlns="http://www.w3.org/2000/svg">
<path fill-rule="evenodd" clip-rule="evenodd" d="M15.4913 1.23047C16.1418 1.23047 16.6691 1.7578 16.6691 2.40831L16.6691 23.1215L25.2589 14.5317C25.7189 14.0717 26.4647 14.0717 26.9247 14.5317C27.3846 14.9916 27.3846 15.7374 26.9247 16.1974L16.3241 26.7979C15.8641 27.2579 15.1184 27.2579 14.6584 26.7979L4.05787 16.1974C3.5979 15.7374 3.5979 14.9916 4.05787 14.5317C4.51785 14.0717 5.26361 14.0717 5.72358 14.5317L14.3134 23.1215L14.3134 2.40831C14.3134 1.7578 14.8408 1.23047 15.4913 1.23047Z" fill="white" stroke="white" stroke-linecap="round" stroke-linejoin="round"/>
<path d="M2.14453 29.5H28.8422" stroke="white" stroke-width="3" stroke-linecap="round"/>
</svg>
