<svg width="33" height="50" viewBox="0 0 33 50" fill="none" xmlns="http://www.w3.org/2000/svg">
<path fill-rule="evenodd" clip-rule="evenodd" d="M16.2266 24.8578C16.2266 20.4023 19.8384 16.7905 24.2938 16.7905C28.7492 16.7905 32.361 20.4023 32.361 24.8578C32.361 29.3132 28.7492 32.925 24.2938 32.925C19.8384 32.925 16.2266 29.3132 16.2266 24.8578Z" fill="#1ABCFE"/>
<path fill-rule="evenodd" clip-rule="evenodd" d="M0.0917969 40.9911C0.0917969 36.5356 3.70362 32.9238 8.15902 32.9238H16.2262V40.9911C16.2262 45.4465 12.6144 49.0583 8.15902 49.0583C3.70362 49.0583 0.0917969 45.4465 0.0917969 40.9911Z" fill="#0ACF83"/>
<path fill-rule="evenodd" clip-rule="evenodd" d="M16.2266 0.655273L16.2266 16.7897H24.2938C28.7492 16.7897 32.361 13.1779 32.361 8.7225C32.361 4.26709 28.7492 0.655273 24.2938 0.655273L16.2266 0.655273Z" fill="#FF7262"/>
<path fill-rule="evenodd" clip-rule="evenodd" d="M0.0917969 8.7225C0.0917969 13.1779 3.70362 16.7897 8.15902 16.7897L16.2262 16.7897L16.2262 0.655273L8.15902 0.655273C3.70362 0.655273 0.0917969 4.26709 0.0917969 8.7225Z" fill="#F24E1E"/>
<path fill-rule="evenodd" clip-rule="evenodd" d="M0.0917969 24.8578C0.0917969 29.3132 3.70362 32.925 8.15902 32.925H16.2262L16.2262 16.7905L8.15902 16.7905C3.70362 16.7905 0.0917969 20.4023 0.0917969 24.8578Z" fill="#A259FF"/>
</svg>
