<svg width="37" height="31" viewBox="0 0 37 31" fill="none" xmlns="http://www.w3.org/2000/svg">
<path d="M9.60442 0.61377C7.16408 0.61377 4.98996 1.63512 3.34828 3.23375C1.75097 4.83239 0.730469 7.0083 0.730469 9.49507C0.730469 11.9374 1.75097 14.1133 3.34828 15.7564L18.4784 30.899L33.6084 15.7564C35.2058 14.1577 36.2263 11.9818 36.2263 9.49507C36.2263 7.05271 35.2058 4.87679 33.6084 3.23375C32.0111 1.63512 29.837 0.61377 27.3523 0.61377C24.912 0.61377 22.7379 1.63512 21.0962 3.23375C19.4989 4.83239 18.4784 7.0083 18.4784 9.49507C18.4784 7.05271 17.4579 4.87679 15.8606 3.23375C14.2632 1.63512 12.0891 0.61377 9.60442 0.61377Z" fill="#F6ED1E"/>
</svg>
