<svg width="49" height="49" viewBox="0 0 49 49" fill="none" xmlns="http://www.w3.org/2000/svg">
<path d="M0.412109 17.9255C0.412109 11.892 0.412109 8.87526 1.58632 6.57075C2.61918 4.54365 4.26728 2.89555 6.29438 1.86268C8.59889 0.688477 11.6157 0.688477 17.6492 0.688477H30.8039C36.8375 0.688477 39.8543 0.688477 42.1587 1.86268C44.1858 2.89555 45.8339 4.54365 46.8668 6.57075C48.041 8.87526 48.041 11.892 48.041 17.9255V31.0803C48.041 37.1139 48.041 40.1307 46.8668 42.435C45.8339 44.4622 44.1858 46.1103 42.1587 47.1432C39.8543 48.3174 36.8375 48.3174 30.8039 48.3174H17.6492C11.6157 48.3174 8.59889 48.3174 6.29438 47.1432C4.26728 46.1103 2.61918 44.4622 1.58632 42.435C0.412109 40.1307 0.412109 37.1139 0.412109 31.0803V17.9255Z" fill="#330000"/>
<path d="M23.4959 30.6191H16.1153L14.6137 35.4036C14.572 35.5813 14.4083 35.7072 14.2303 35.6984H10.492C10.2788 35.6984 10.2042 35.5783 10.2683 35.3379L16.6585 16.4623C16.7224 16.2656 16.7864 16.0418 16.8502 15.7905C16.9339 15.3532 16.9766 14.9089 16.9781 14.4634C16.9597 14.3317 17.0754 14.2154 17.2016 14.2339H22.2819C22.4308 14.2339 22.5158 14.2885 22.5374 14.3977L29.7904 35.3708C29.8542 35.5893 29.7904 35.6985 29.5987 35.6984H25.445C25.2994 35.715 25.1602 35.6152 25.1255 35.4691L23.4959 30.6191ZM17.2656 26.49H22.3139C21.4845 23.6557 20.5484 20.8587 19.7897 18.0025C18.9712 20.8637 18.0782 23.7132 17.2656 26.49Z" fill="#FF9A00"/>
<path d="M34.1004 17.7082C33.7745 17.7216 33.4496 17.6643 33.1467 17.5401C32.8439 17.4159 32.57 17.2275 32.3431 16.9873C32.1169 16.7366 31.941 16.4426 31.8258 16.122C31.7106 15.8015 31.6584 15.4608 31.672 15.1194C31.6605 14.7814 31.7185 14.4448 31.8423 14.1313C31.9663 13.8179 32.1533 13.5349 32.3911 13.3006C32.6265 13.0688 32.9044 12.8871 33.2089 12.7662C33.5132 12.6453 33.838 12.5874 34.1642 12.5961C34.9312 12.5961 35.5329 12.8309 35.9695 13.3006C36.19 13.5447 36.3613 13.831 36.4737 14.1431C36.586 14.4551 36.6373 14.787 36.6244 15.1194C36.6379 15.462 36.5839 15.804 36.4659 16.1249C36.348 16.4457 36.1682 16.7389 35.9375 16.9873C35.6965 17.231 35.4087 17.4209 35.0926 17.5451C34.7764 17.6691 34.4386 17.7247 34.1004 17.7082ZM31.8957 35.3714V19.7072C31.8957 19.5106 31.9806 19.4123 32.1514 19.4123H36.0815C36.2516 19.4123 36.3368 19.5106 36.3369 19.7072V35.3714C36.3369 35.5901 36.2517 35.6993 36.0815 35.6992H32.1834C31.9917 35.6992 31.8957 35.5899 31.8957 35.3714Z" fill="#FF9A00"/>
</svg>
