<svg width="64" height="53" viewBox="0 0 64 53" fill="none" xmlns="http://www.w3.org/2000/svg">
<path d="M0.640625 48.1646C0.640625 50.4401 2.4997 52.2832 4.79025 52.2832H4.84989C2.52427 52.2832 0.640625 50.4401 0.640625 48.1646Z" fill="#FBBC05"/>
<path d="M36.3013 16.2439V26.9971L50.7987 15.3035V4.91751C50.7987 2.64194 48.9396 0.798828 46.6491 0.798828L15.241 0.798828L15.2129 16.2439L36.3013 16.2439Z" fill="#FBBC05"/>
<path d="M36.2984 37.7556H15.1749L15.1504 52.2843H46.6462C48.9403 52.2843 50.7959 50.4412 50.7959 48.1656V38.7887L36.2984 27.0024V37.7556Z" fill="#34A853"/>
<path d="M15.2398 0.798828L0.640625 16.2439H15.2152L15.2398 0.798828Z" fill="#EA4335"/>
<path d="M0.640625 37.7539L0.640625 48.1639C0.640625 50.4395 2.52427 52.2826 4.84989 52.2826H15.1521L15.1766 37.7539H0.640625Z" fill="#1967D2"/>
<path d="M15.2152 16.2437L0.640625 16.2437L0.640625 37.7535H15.1766L15.2152 16.2437Z" fill="#4285F4"/>
<path d="M63.5404 44.5026L63.5404 9.15056C62.7231 4.45869 57.5773 9.837 57.5773 9.837L50.7969 15.3046L50.7969 38.7845L60.5027 46.6752C64.007 47.1351 63.5404 44.5026 63.5404 44.5026Z" fill="#34A853"/>
<path d="M36.2988 26.9973L50.7998 38.7871V15.3071L36.2988 26.9973Z" fill="#188038"/>
</svg>
