<svg width="55" height="59" viewBox="0 0 55 59" fill="none" xmlns="http://www.w3.org/2000/svg">
<path d="M9.61211 10.974C11.3897 12.418 12.0569 12.3084 15.3976 12.0844L46.8865 10.1949C47.5537 10.1949 46.9985 9.52768 46.7769 9.41807L41.5442 5.63654C40.5434 4.85974 39.2067 3.96857 36.6475 4.19017L6.15942 6.41572C5.04903 6.52533 4.82504 7.08291 5.26824 7.52611L9.61211 10.974ZM11.5017 18.3131L11.5017 51.4438C11.5017 53.2237 12.3905 53.8909 14.3944 53.7789L49 51.7774C51.004 51.6677 51.228 50.443 51.228 48.9966L51.228 16.0876C51.228 14.6436 50.6728 13.8644 49.4456 13.974L13.2816 16.0876C11.9473 16.1996 11.5017 16.8691 11.5017 18.3131ZM45.6641 20.0883C45.8857 21.0891 45.6641 22.0899 44.6633 22.2042L42.9953 22.5378L42.9953 46.995C41.5466 47.7742 40.2122 48.2198 39.0994 48.2198C37.3171 48.2198 36.8715 47.6622 35.5371 45.9966L24.631 28.8737L24.631 45.4391L28.0813 46.2206C28.0813 46.2206 28.0813 48.2222 25.2982 48.2222L17.6208 48.6654C17.3992 48.2222 17.6208 47.1094 18.3999 46.8878L20.4015 46.3326L20.4015 24.4274L17.6255 24.2034C17.4015 23.2026 17.9591 21.7587 19.5151 21.6467L27.7501 21.0915L39.1018 38.436V23.0907L36.2067 22.7594C35.9851 21.5347 36.8739 20.6459 37.9867 20.5363L45.6641 20.0883ZM3.60028 3.41338L35.3155 1.07822C39.209 0.744624 40.2122 0.966225 42.6594 2.74619L52.7839 9.86127C54.4519 11.0837 55.0095 11.4172 55.0095 12.7516L55.0095 51.7774C55.0095 54.2221 54.1207 55.6709 51.0064 55.8901L14.1728 58.1156C11.8377 58.2276 10.7225 57.894 9.49774 56.3357L2.04192 46.6614C0.707539 44.8815 0.152344 43.5495 0.152344 41.9911L0.152344 7.30213C0.152344 5.30295 1.04352 3.63259 3.60028 3.41338Z" fill="black"/>
</svg>
