<svg width="48" height="48" viewBox="0 0 48 48" fill="none" xmlns="http://www.w3.org/2000/svg">
<path d="M-0.0078125 17.2791C-0.0078125 11.2456 -0.0078125 8.22877 1.16639 5.92426C2.19926 3.89716 3.84736 2.24906 5.87446 1.2162C8.17897 0.0419922 11.1957 0.0419922 17.2293 0.0419922H30.384C36.4176 0.0419922 39.4344 0.0419922 41.7388 1.2162C43.7659 2.24906 45.414 3.89716 46.4469 5.92426C47.6211 8.22877 47.6211 11.2456 47.6211 17.2791V30.4338C47.6211 36.4674 47.6211 39.4842 46.4469 41.7886C45.414 43.8157 43.7659 45.4638 41.7388 46.4967C39.4344 47.6709 36.4176 47.6709 30.384 47.6709H17.2293C11.1957 47.6709 8.17897 47.6709 5.87446 46.4967C3.84736 45.4638 2.19926 43.8157 1.16639 41.7886C-0.0078125 39.4842 -0.0078125 36.4674 -0.0078125 30.4338V17.2791Z" fill="#001E36"/>
<path d="M10.2012 34.9413V13.9969C10.2012 13.8545 10.2607 13.773 10.3996 13.773C12.4504 13.773 14.5004 13.6509 16.5516 13.6509C19.8804 13.6509 23.4845 14.789 24.7479 18.2712C25.0456 19.1262 25.2043 20.0013 25.2043 20.9173C25.2043 22.6679 24.8074 24.1129 24.0136 25.2528C21.7961 28.4368 17.9528 28.3873 14.5077 28.3873V34.9211C14.5346 35.1145 14.3697 35.206 14.21 35.206H10.4393C10.2806 35.206 10.2012 35.1245 10.2012 34.9413ZM14.5274 17.7014V24.5404C15.8935 24.6404 17.3229 24.6513 18.6354 24.2148C20.0845 23.7967 20.878 22.5425 20.878 21.0395C20.9182 19.7588 20.2204 18.5299 19.0324 18.0678C17.7357 17.5286 15.9272 17.4962 14.5274 17.7014Z" fill="#31A8FF"/>
<path d="M37.5805 23.1883C36.98 22.8717 36.3405 22.6402 35.6793 22.5001C34.8298 22.3002 31.4791 21.6 31.4777 23.3521C31.5075 24.3302 33.0602 24.8094 33.7462 25.0889C36.1547 25.9157 38.8801 27.3938 38.8265 30.365C38.9002 34.0637 35.3164 35.5424 32.2445 35.5427C30.6454 35.5592 28.9794 35.3116 27.5158 34.625C27.376 34.551 27.2862 34.393 27.2922 34.2317V30.6926C27.2763 30.5507 27.4287 30.4267 27.5478 30.5288C28.9818 31.396 30.6815 31.8171 32.3405 31.8396C33.0728 31.8396 34.5241 31.7686 34.5132 30.6926C34.5132 29.66 32.777 29.1853 32.0848 28.923C31.0815 28.5649 30.1303 28.0687 29.2572 27.4484C28.0369 26.5779 27.2714 25.1824 27.2922 23.6471C27.285 20.1644 30.5838 18.6011 33.5547 18.6004C34.9434 18.5889 36.4349 18.6918 37.7276 19.2559C37.9136 19.3105 37.952 19.5064 37.9513 19.6818V22.9917C37.9631 23.1971 37.735 23.2671 37.5805 23.1883Z" fill="#31A8FF"/>
</svg>
