<svg width="49" height="49" viewBox="0 0 49 49" fill="none" xmlns="http://www.w3.org/2000/svg">
<path d="M0.671875 17.9255C0.671875 11.892 0.671875 8.87526 1.84608 6.57075C2.87895 4.54365 4.52704 2.89555 6.55415 1.86268C8.85865 0.688477 11.8754 0.688477 17.9089 0.688477H31.0637C37.0973 0.688477 40.1141 0.688477 42.4184 1.86268C44.4456 2.89555 46.0937 4.54365 47.1266 6.57075C48.3008 8.87526 48.3008 11.892 48.3008 17.9255V31.0803C48.3008 37.1139 48.3008 40.1307 47.1266 42.435C46.0937 44.4622 44.4456 46.1103 42.4184 47.1432C40.1141 48.3174 37.0973 48.3174 31.0637 48.3174H17.9089C11.8754 48.3174 8.85865 48.3174 6.55415 47.1432C4.52704 46.1103 2.87895 44.4622 1.84608 42.435C0.671875 40.1307 0.671875 37.1139 0.671875 31.0803V17.9255Z" fill="#00005B"/>
<path d="M10.877 34.3611V12.949C10.877 12.8033 10.9367 12.7201 11.076 12.7201C13.1329 12.7201 15.1889 12.5952 17.2465 12.5952C20.5849 12.5952 24.1999 13.7588 25.467 17.3188C25.7656 18.1928 25.9248 19.0875 25.9248 20.024C25.9248 21.8134 25.5268 23.2908 24.7305 24.4562C22.5066 27.7113 18.6517 27.6608 15.1962 27.6608V34.3402C15.2233 34.538 15.0579 34.6316 14.8977 34.6316H11.1158C10.9566 34.6316 10.877 34.5484 10.877 34.3611ZM15.2161 16.7362V23.7278C16.5863 23.8302 18.0199 23.8413 19.3364 23.3949C20.7897 22.9676 21.5856 21.6854 21.5856 20.1488C21.6261 18.8395 20.9261 17.5832 19.7346 17.1108C18.434 16.5595 16.6201 16.5265 15.2161 16.7362Z" fill="#9999FF"/>
<path d="M28.6205 18.0587H32.1138C32.3063 18.0606 32.4793 18.1996 32.5302 18.3938C32.7862 18.988 32.8178 19.7047 32.8187 20.3461C33.4178 19.6169 34.14 19.0095 34.9497 18.5537C35.8181 18.0402 36.8025 17.7798 37.8 17.8C37.9657 17.7752 38.1121 17.9284 38.0885 18.1014V22.1552C38.0885 22.3118 37.9813 22.3897 37.768 22.3897C36.2895 22.2831 33.9876 22.6483 32.9133 23.8639V34.4041C32.9133 34.6052 32.8279 34.7057 32.6569 34.7057H28.909C28.725 34.7333 28.5625 34.5601 28.5886 34.3706V22.9257C28.5886 21.3923 28.6204 19.8125 28.3963 18.2933C28.3618 18.1535 28.4897 18.0235 28.6205 18.0587Z" fill="#9999FF"/>
</svg>
