<svg width="59" height="59" viewBox="0 0 59 59" fill="none" xmlns="http://www.w3.org/2000/svg">
<path fill-rule="evenodd" clip-rule="evenodd" d="M7.35222 0.345215C3.78789 0.345215 0.898437 3.23467 0.898437 6.799L0.898437 51.9755C0.898437 55.5398 3.78789 58.4292 7.35222 58.4292L52.5287 58.4292C56.093 58.4292 58.9825 55.5398 58.9825 51.9755L58.9825 6.799C58.9825 3.23467 56.093 0.345215 52.5287 0.345215L7.35222 0.345215Z" fill="white"/>
<path fill-rule="evenodd" clip-rule="evenodd" d="M7.35222 0.345215C3.78789 0.345215 0.898437 3.23467 0.898437 6.799L0.898437 51.9755C0.898437 55.5398 3.78789 58.4292 7.35222 58.4292L52.5287 58.4292C56.093 58.4292 58.9825 55.5398 58.9825 51.9755L58.9825 6.799C58.9825 3.23467 56.093 0.345215 52.5287 0.345215L7.35222 0.345215ZM40.9151 24.041C40.9151 24.041 37.7753 33.5245 37.5188 34.3077C36.7282 28.3641 35.93 22.4214 35.1245 16.4797C29.7743 16.4797 26.9136 20.1469 25.4018 24.0177L21.2633 34.331C21.2391 33.5913 20.6825 24.1296 20.6825 24.1296C20.3534 19.387 15.8422 16.4999 12.1926 16.4999L16.6118 42.2948C22.2169 42.2715 25.2389 38.626 26.8217 34.7552C26.8217 34.7552 30.1938 26.3672 30.3325 25.9865C30.3567 26.3439 32.7527 42.2932 32.7527 42.2932C38.3804 42.2932 41.404 38.8715 43.0303 35.1359L50.9152 16.5014C45.3569 16.5014 42.4269 20.1485 40.9151 24.041Z" fill="#4353FF"/>
</svg>
