<svg width="56" height="56" viewBox="0 0 56 56" fill="none" xmlns="http://www.w3.org/2000/svg">
<path d="M3.84581 28.2508C3.84581 37.682 9.33153 45.8051 17.2647 49.6662L5.91349 18.5665C4.55046 21.6131 3.84587 24.9132 3.84581 28.2508ZM27.6454 52.0504C30.4093 52.0504 33.0678 51.5651 35.5575 50.7001L35.3887 50.3836L28.0673 30.3396L20.9359 51.0799C23.0458 51.7128 25.3034 52.0504 27.6454 52.0504ZM30.9157 17.0895L39.524 42.6825L41.9082 34.7493C42.921 31.4579 43.7016 29.0948 43.7016 27.0482C43.7016 24.0944 42.6467 22.0689 41.7605 20.5075C40.5368 18.5242 39.4185 16.8574 39.4185 14.9163C39.4185 12.722 41.0642 10.6966 43.4273 10.6966H43.7227C39.3374 6.6707 33.5984 4.44136 27.6454 4.45127C23.7037 4.45054 19.8237 5.42968 16.3543 7.30062C12.885 9.17158 9.93512 11.8756 7.77019 15.1695L9.28934 15.2117C11.779 15.2117 15.619 14.8952 15.619 14.8952C16.9271 14.832 17.0748 16.7097 15.7878 16.8574C15.7878 16.8574 14.5008 17.0262 13.0449 17.0895L21.7377 42.8723L26.9491 27.2592L23.2357 17.0895C22.4039 17.0436 21.5737 16.9732 20.746 16.8785C19.459 16.7941 19.6067 14.832 20.8937 14.8952C20.8937 14.8952 24.8181 15.2117 27.1601 15.2117C29.6497 15.2117 33.4897 14.8952 33.4897 14.8952C34.7768 14.832 34.9456 16.7097 33.6585 16.8574C33.6585 16.8574 32.3715 17.0051 30.9157 17.0895ZM39.6084 48.8223C43.2088 46.7288 46.1968 43.7271 48.2739 40.1173C50.351 36.5074 51.4444 32.4156 51.4449 28.2508C51.4449 24.1154 50.39 20.2332 48.5333 16.8363C48.9104 20.5735 48.3445 24.3457 46.8876 27.8078L39.6084 48.8223ZM27.6454 55.6794C20.3709 55.6794 13.3943 52.7896 8.25046 47.6457C3.10658 42.5019 0.216797 35.5253 0.216797 28.2508C0.216797 20.9763 3.10658 13.9998 8.25046 8.85593C13.3943 3.71205 20.3709 0.822266 27.6454 0.822266C34.9199 0.822266 41.8964 3.71205 47.0403 8.85593C52.1842 13.9998 55.0739 20.9763 55.0739 28.2508C55.0739 35.5253 52.1842 42.5019 47.0403 47.6457C41.8964 52.7896 34.9199 55.6794 27.6454 55.6794Z" fill="#126FC2"/>
</svg>
