<svg width="66" height="65" viewBox="0 0 66 65" fill="none" xmlns="http://www.w3.org/2000/svg">
<g clip-path="url(#clip0_130_787)">
<path d="M32.9994 64.656C50.821 64.656 65.2683 50.2087 65.2683 32.3871C65.2683 14.5654 50.821 0.118164 32.9994 0.118164C15.1777 0.118164 0.730469 14.5654 0.730469 32.3871C0.730469 50.2087 15.1777 64.656 32.9994 64.656Z" fill="#FF4A00"/>
<path d="M37.0333 32.3943C37.0335 33.5568 36.8236 34.7098 36.4138 35.7977C35.3249 36.2091 34.1706 36.4203 33.0066 36.421H32.9928C31.8303 36.4211 30.6773 36.2112 29.5894 35.8015C29.1779 34.7126 28.9667 33.5583 28.9661 32.3943V32.3805C28.9662 31.218 29.1761 30.065 29.5856 28.9771C30.6744 28.5656 31.8287 28.3544 32.9928 28.3538H33.0066C34.1704 28.3533 35.3247 28.5634 36.4138 28.9739C36.8236 30.0618 37.0335 31.2148 37.0333 32.3773V32.3912V32.3943ZM48.9098 29.6981H39.4913L46.1512 23.0389C45.6281 22.3052 45.0448 21.6165 44.4072 20.9798C43.7704 20.3432 43.0817 19.7607 42.3482 19.2384L35.689 25.8958V16.4773C34.8032 16.3285 33.9067 16.2535 33.0085 16.2529H32.9915C32.0933 16.2535 31.1968 16.3285 30.311 16.4773V25.8958L23.6512 19.2359C22.9176 19.759 22.2288 20.3423 21.5921 20.9798C20.9558 21.6162 20.3735 22.3045 19.8514 23.0376L26.5081 29.6981H17.0896C17.0896 29.6981 16.8652 31.4672 16.8652 32.3817V32.3931C16.8656 33.2923 16.9407 34.1899 17.0896 35.0767H26.5081L19.8482 41.7359C20.8955 43.2063 22.1808 44.4916 23.6512 45.5389L30.3104 38.879V48.2975C31.1953 48.4461 32.091 48.5211 32.9883 48.5218H33.0117C33.9088 48.5211 34.8043 48.446 35.689 48.2975V38.879L42.3482 45.5389C43.0818 45.0157 43.7705 44.4324 44.4072 43.7949C45.044 43.1581 45.6267 42.4694 46.1493 41.7359L39.4913 35.0767H48.9098C49.0584 34.1917 49.1334 33.296 49.1341 32.3987V32.3754C49.1334 31.4783 49.0583 30.5828 48.9098 29.6981Z" fill="white"/>
</g>
<defs>
<clipPath id="clip0_130_787">
<rect width="64.5378" height="64.5378" fill="white" transform="translate(0.730469 0.118164)"/>
</clipPath>
</defs>
</svg>
